<svg width="541.8000122070313px" height="122.39999389648438px" xmlns="http://www.w3.org/2000/svg" viewBox="-20.900006103515636 13.800003051757812 541.8000122070313 122.39999389648438" style="background: none;" preserveAspectRatio="xMidYMid"><defs><filter id="editing-hole" x="-100%" y="-100%" width="300%" height="300%"><feFlood flood-color="#000" result="black"></feFlood><feMorphology operator="dilate" radius="2" in="SourceGraphic" result="erode"></feMorphology><feGaussianBlur in="erode" stdDeviation="4" result="blur"></feGaussianBlur><feOffset in="blur" dx="2" dy="2" result="offset"></feOffset><feComposite operator="atop" in="offset" in2="black" result="merge"></feComposite><feComposite operator="in" in="merge" in2="SourceGraphic" result="inner-shadow"></feComposite></filter></defs><g filter="url(#editing-hole)"><g transform="translate(60.49500489234924, 104.76000022888184)"><path d="M42.62-26.56L42.62-26.56L42.62-26.56Q42.62 0.70 13.06 0.70L13.06 0.70L13.06 0.70Q8.32 0.70 0.51-0.45L0.51-0.45L7.68-38.27L7.68-38.27Q8.19-40.83 8.51-42.30L8.51-42.30L8.51-42.30Q18.24-43.01 22.56-43.01L22.56-43.01L22.56-43.01Q26.88-43.01 30.85-42.11L30.85-42.11L30.85-42.11Q34.82-41.22 37.44-39.23L37.44-39.23L37.44-39.23Q42.62-35.33 42.62-26.56ZM29.44-28.93L29.44-28.93L29.44-28.93Q29.44-38.46 22.59-38.46L22.59-38.46L21.95-38.46L21.95-38.46Q21.63-38.46 21.31-38.40L21.31-38.40L14.72-4.03L14.72-4.03Q14.98-3.90 15.23-3.90L15.23-3.90L15.74-3.90L15.74-3.90Q18.11-3.90 20.58-5.38L20.58-5.38L20.58-5.38Q23.04-6.85 24.96-9.86L24.96-9.86L24.96-9.86Q29.44-16.83 29.44-28.93ZM36.99 7.62L36.99 7.62L36.99 7.62Q40.32 7.36 42.75 3.20L42.75 3.20L42.75 3.20Q44.61 0 45.82-5.89L45.82-5.89L51.01-32.64L63.87-33.92L58.43-5.89L58.43-5.89Q56.32 4.80 53.06 8.32L53.06 8.32L53.06 8.32Q51.33 10.24 49.09 10.88L49.09 10.88L49.09 10.88Q46.85 11.52 44.29 11.52L44.29 11.52L44.29 11.52Q38.91 11.52 36.99 7.62ZM52.03-41.54L52.03-41.54L52.03-41.54Q52.03-44.03 54.11-45.38L54.11-45.38L54.11-45.38Q56.19-46.72 59.20-46.72L59.20-46.72L59.20-46.72Q62.21-46.72 64.03-45.38L64.03-45.38L64.03-45.38Q65.86-44.03 65.86-41.54L65.86-41.54L65.86-41.54Q65.86-39.04 63.84-37.76L63.84-37.76L63.84-37.76Q61.82-36.48 58.82-36.48L58.82-36.48L58.82-36.48Q55.81-36.48 53.92-37.76L53.92-37.76L53.92-37.76Q52.03-39.04 52.03-41.54ZM68.96-1.92L68.96-1.92L68.96-1.92Q67.46-3.58 66.78-6.21L66.78-6.21L66.78-6.21Q66.11-8.83 66.11-13.12L66.11-13.12L66.11-13.12Q66.11-17.41 67.58-21.31L67.58-21.31L67.58-21.31Q69.06-25.22 71.74-28.03L71.74-28.03L71.74-28.03Q77.25-33.92 86.34-33.92L86.34-33.92L86.34-33.92Q89.60-33.92 91.97-32.83L91.97-32.83L102.91-33.92L98.18-8.96L98.18-8.96Q97.98-8.19 97.98-6.78L97.98-6.78L97.98-6.78Q97.98-5.38 98.85-4.48L98.85-4.48L98.85-4.48Q99.71-3.58 100.99-3.46L100.99-3.46L100.99-3.46Q100.35-1.28 98.02 0L98.02 0L98.02 0Q95.68 1.28 93.06 1.28L93.06 1.28L93.06 1.28Q90.43 1.28 88.67 0.29L88.67 0.29L88.67 0.29Q86.91-0.70 86.40-2.37L86.40-2.37L86.40-2.37Q85.38-0.77 83.20 0.26L83.20 0.26L83.20 0.26Q81.02 1.28 78.11 1.28L78.11 1.28L78.11 1.28Q75.20 1.28 72.83 0.51L72.83 0.51L72.83 0.51Q70.46-0.26 68.96-1.92ZM82.46-27.90L82.46-27.90L82.46-27.90Q81.73-26.75 81.09-24.80L81.09-24.80L81.09-24.80Q80.45-22.85 79.39-17.63L79.39-17.63L79.39-17.63Q78.34-12.42 78.34-8.70L78.34-8.70L78.34-8.70Q78.34-4.99 78.91-3.90L78.91-3.90L78.91-3.90Q79.49-2.82 80.51-2.82L80.51-2.82L80.51-2.82Q82.56-2.82 84.06-4.77L84.06-4.77L84.06-4.77Q85.57-6.72 86.14-10.18L86.14-10.18L89.54-28.93L89.54-28.93Q88.19-30.08 86.62-30.08L86.62-30.08L86.62-30.08Q85.06-30.08 84.13-29.57L84.13-29.57L84.13-29.57Q83.20-29.06 82.46-27.90ZM133.44 1.28L133.44 1.28L133.44 1.28Q125.70 1.28 125.70-4.74L125.70-4.74L125.70-4.74Q125.76-6.40 126.27-9.22L126.27-9.22L127.42-15.10L127.42-15.10Q129.15-23.42 129.15-25.28L129.15-25.28L129.15-25.28Q129.15-28.99 126.98-28.99L126.98-28.99L126.98-28.99Q123.33-28.99 121.41-19.46L121.41-19.46L117.63 0L104.77 1.28L111.42-32.70L121.92-33.92L120.90-27.65L120.90-27.65Q123.90-33.92 133.12-33.92L133.12-33.92L133.12-33.92Q137.60-33.92 139.49-32.03L139.49-32.03L139.49-32.03Q141.38-30.14 141.38-25.92L141.38-25.92L141.38-25.92Q141.38-21.95 139.33-12.67L139.33-12.67L139.33-12.67Q138.37-8.51 138.37-6.94L138.37-6.94L138.37-6.94Q138.37-5.38 139.23-4.48L139.23-4.48L139.23-4.48Q140.10-3.58 141.38-3.46L141.38-3.46L141.38-3.46Q140.74-1.28 138.53 0L138.53 0L138.53 0Q136.32 1.28 133.44 1.28ZM151.04-26.75L151.04-26.75L151.04-26.75Q153.22-29.82 156.51-31.87L156.51-31.87L156.51-31.87Q159.81-33.92 163.84-33.92L163.84-33.92L163.84-33.92Q167.87-33.92 169.79-32.64L169.79-32.64L182.34-33.92L177.98-9.34L177.98-9.34Q175.74 3.20 171.01 8.13L171.01 8.13L171.01 8.13Q166.46 12.80 157.63 12.80L157.63 12.80L157.63 12.80Q150.91 12.80 147.07 10.69L147.07 10.69L147.07 10.69Q143.23 8.58 143.23 5.06L143.23 5.06L143.23 5.06Q143.23 2.43 145.22 0.93L145.22 0.93L145.22 0.93Q147.20-0.58 150.27-0.58L150.27-0.58L150.27-0.58Q152.96-0.58 155.01 0.64L155.01 0.64L155.01 0.64Q156.22 1.28 156.80 2.18L156.80 2.18L156.80 2.18Q155.33 3.46 155.33 5.57L155.33 5.57L155.33 5.57Q155.33 8.32 157.89 8.32L157.89 8.32L157.89 8.32Q162.18 8.32 164.61-1.79L164.61-1.79L164.61-1.79Q165.31-4.54 165.89-7.30L165.89-7.30L165.89-7.30Q163.01-3.78 156.48-3.78L156.48-3.78L156.48-3.78Q151.94-3.78 149.31-5.95L149.31-5.95L149.31-5.95Q146.69-8.13 146.69-13.25L146.69-13.25L146.69-13.25Q146.69-16.45 147.78-20.06L147.78-20.06L147.78-20.06Q148.86-23.68 151.04-26.75ZM159.36-13.06L159.36-13.06L159.36-13.06Q159.36-8.70 161.60-8.70L161.60-8.70L161.60-8.70Q163.14-8.70 164.61-10.37L164.61-10.37L164.61-10.37Q165.76-11.71 166.21-13.70L166.21-13.70L169.47-30.14L169.47-30.14Q169.15-30.21 168.83-30.34L168.83-30.34L168.83-30.34Q168.19-30.59 167.36-30.59L167.36-30.59L167.36-30.59Q163.46-30.59 161.15-24.19L161.15-24.19L161.15-24.19Q159.36-19.20 159.36-13.06ZM198.78 1.28L198.78 1.28L198.78 1.28Q184.70 1.28 184.70-11.97L184.70-11.97L184.70-11.97Q184.70-21.38 189.89-27.46L189.89-27.46L189.89-27.46Q195.39-33.92 204.93-33.92L204.93-33.92L204.93-33.92Q211.84-33.92 215.36-30.72L215.36-30.72L215.36-30.72Q218.88-27.52 218.88-20.80L218.88-20.80L218.88-20.80Q218.88-10.56 213.38-4.61L213.38-4.61L213.38-4.61Q208.00 1.28 198.78 1.28ZM200.45-26.56L200.45-26.56L200.45-26.56Q199.68-24.83 199.07-22.24L199.07-22.24L199.07-22.24Q198.46-19.65 197.70-15.55L197.70-15.55L197.70-15.55Q196.93-11.46 196.93-6.40L196.93-6.40L196.93-6.40Q196.93-4.74 197.47-3.65L197.47-3.65L197.47-3.65Q198.02-2.56 199.49-2.56L199.49-2.56L199.49-2.56Q200.96-2.56 201.89-3.26L201.89-3.26L201.89-3.26Q202.82-3.97 203.52-5.63L203.52-5.63L203.52-5.63Q204.80-8.58 205.82-14.05L205.82-14.05L205.82-14.05Q206.85-19.52 206.94-21.89L206.94-21.89L206.94-21.89Q207.04-24.26 207.04-26.02L207.04-26.02L207.04-26.02Q207.04-27.78 206.53-28.93L206.53-28.93L206.53-28.93Q206.02-30.08 204.58-30.08L204.58-30.08L204.58-30.08Q203.14-30.08 202.18-29.18L202.18-29.18L202.18-29.18Q201.22-28.29 200.45-26.56ZM256.06-13.25L256.06-13.25L256.06-13.25Q257.73-12.03 257.73-9.44L257.73-9.44L257.73-9.44Q257.73-6.85 256.61-5.02L256.61-5.02L256.61-5.02Q255.49-3.20 253.31-1.79L253.31-1.79L253.31-1.79Q248.64 1.22 240.48 1.22L240.48 1.22L240.48 1.22Q232.32 1.22 227.87-3.04L227.87-3.04L227.87-3.04Q223.42-7.30 223.42-14.85L223.42-14.85L223.42-14.85Q223.42-25.54 228.99-33.66L228.99-33.66L228.99-33.66Q233.22-39.68 240.77-42.24L240.77-42.24L240.77-42.24Q244.67-43.52 248.51-43.52L248.51-43.52L248.51-43.52Q252.35-43.52 254.72-43.01L254.72-43.01L254.72-43.01Q257.09-42.50 258.88-41.47L258.88-41.47L258.88-41.47Q262.78-39.23 262.78-35.65L262.78-35.65L262.78-35.65Q262.78-32.38 259.71-29.95L259.71-29.95L259.71-29.95Q256.90-27.78 254.59-27.78L254.59-27.78L254.59-27.78Q252.29-27.78 251.33-28.10L251.33-28.10L251.33-28.10Q251.58-30.40 251.58-31.90L251.58-31.90L251.58-31.90Q251.58-33.41 251.52-34.50L251.52-34.50L251.52-34.50Q251.46-35.58 251.14-36.61L251.14-36.61L251.14-36.61Q250.50-38.98 248.54-38.98L248.54-38.98L248.54-38.98Q246.59-38.98 244.64-37.15L244.64-37.15L244.64-37.15Q242.69-35.33 241.02-32.26L241.02-32.26L241.02-32.26Q237.25-25.28 237.25-17.02L237.25-17.02L237.25-17.02Q237.25-13.06 239.49-10.78L239.49-10.78L239.49-10.78Q241.73-8.51 246.53-8.51L246.53-8.51L246.53-8.51Q250.11-8.51 253.50-10.88L253.50-10.88L253.50-10.88Q254.98-11.90 256.06-13.25ZM295.23-7.10L295.23-7.10L295.23-7.10Q295.23-4.29 298.11-3.46L298.11-3.46L298.11-3.46Q297.41-1.09 294.66 0.19L294.66 0.19L294.66 0.19Q292.35 1.28 289.82 1.28L289.82 1.28L289.82 1.28Q287.30 1.28 285.98 0.61L285.98 0.61L285.98 0.61Q284.67-0.06 283.97-1.15L283.97-1.15L283.97-1.15Q282.82-2.82 282.82-5.95L282.82-5.95L282.82-5.95Q282.82-7.81 283.84-12.93L283.84-12.93L284.74-17.79L284.74-17.79Q285.82-23.36 285.82-25.41L285.82-25.41L285.82-25.41Q285.82-28.99 283.84-28.99L283.84-28.99L283.84-28.99Q281.34-28.99 279.74-25.34L279.74-25.34L279.74-25.34Q279.10-23.94 278.66-21.82L278.66-21.82L274.30 0L261.44 1.28L270.46-44.80L283.33-46.08L282.82-43.52L282.82-43.52Q281.02-33.66 279.49-30.34L279.49-30.34L279.49-30.34Q283.07-33.92 289.66-33.92L289.66-33.92L289.66-33.92Q296.64-33.92 297.92-29.31L297.92-29.31L297.92-29.31Q298.37-27.84 298.37-26.56L298.37-26.56L298.37-26.56Q298.37-25.28 298.27-24.29L298.27-24.29L298.27-24.29Q298.18-23.30 297.86-21.50L297.86-21.50L297.02-16.90L295.55-9.66L295.55-9.66Q295.23-8.19 295.23-7.10ZM306.08-1.92L306.08-1.92L306.08-1.92Q304.58-3.58 303.90-6.21L303.90-6.21L303.90-6.21Q303.23-8.83 303.23-13.12L303.23-13.12L303.23-13.12Q303.23-17.41 304.70-21.31L304.70-21.31L304.70-21.31Q306.18-25.22 308.86-28.03L308.86-28.03L308.86-28.03Q314.37-33.92 323.46-33.92L323.46-33.92L323.46-33.92Q326.72-33.92 329.09-32.83L329.09-32.83L340.03-33.92L335.30-8.96L335.30-8.96Q335.10-8.19 335.10-6.78L335.10-6.78L335.10-6.78Q335.10-5.38 335.97-4.48L335.97-4.48L335.97-4.48Q336.83-3.58 338.11-3.46L338.11-3.46L338.11-3.46Q337.47-1.28 335.14 0L335.14 0L335.14 0Q332.80 1.28 330.18 1.28L330.18 1.28L330.18 1.28Q327.55 1.28 325.79 0.29L325.79 0.29L325.79 0.29Q324.03-0.70 323.52-2.37L323.52-2.37L323.52-2.37Q322.50-0.77 320.32 0.26L320.32 0.26L320.32 0.26Q318.14 1.28 315.23 1.28L315.23 1.28L315.23 1.28Q312.32 1.28 309.95 0.51L309.95 0.51L309.95 0.51Q307.58-0.26 306.08-1.92ZM319.58-27.90L319.58-27.90L319.58-27.90Q318.85-26.75 318.21-24.80L318.21-24.80L318.21-24.80Q317.57-22.85 316.51-17.63L316.51-17.63L316.51-17.63Q315.46-12.42 315.46-8.70L315.46-8.70L315.46-8.70Q315.46-4.99 316.03-3.90L316.03-3.90L316.03-3.90Q316.61-2.82 317.63-2.82L317.63-2.82L317.63-2.82Q319.68-2.82 321.18-4.77L321.18-4.77L321.18-4.77Q322.69-6.72 323.26-10.18L323.26-10.18L326.66-28.93L326.66-28.93Q325.31-30.08 323.74-30.08L323.74-30.08L323.74-30.08Q322.18-30.08 321.25-29.57L321.25-29.57L321.25-29.57Q320.32-29.06 319.58-27.90ZM370.56 1.28L370.56 1.28L370.56 1.28Q362.82 1.28 362.82-4.74L362.82-4.74L362.82-4.74Q362.88-6.40 363.39-9.22L363.39-9.22L364.54-15.10L364.54-15.10Q366.27-23.42 366.27-25.28L366.27-25.28L366.27-25.28Q366.27-28.99 364.10-28.99L364.10-28.99L364.10-28.99Q360.45-28.99 358.53-19.46L358.53-19.46L354.75 0L341.89 1.28L348.54-32.70L359.04-33.92L358.02-27.65L358.02-27.65Q361.02-33.92 370.24-33.92L370.24-33.92L370.24-33.92Q374.72-33.92 376.61-32.03L376.61-32.03L376.61-32.03Q378.50-30.14 378.50-25.92L378.50-25.92L378.50-25.92Q378.50-21.95 376.45-12.67L376.45-12.67L376.45-12.67Q375.49-8.51 375.49-6.94L375.49-6.94L375.49-6.94Q375.49-5.38 376.35-4.48L376.35-4.48L376.35-4.48Q377.22-3.58 378.50-3.46L378.50-3.46L378.50-3.46Q377.86-1.28 375.65 0L375.65 0L375.65 0Q373.44 1.28 370.56 1.28Z" fill="#ccc"></path></g></g><style>text {
  font-size: 64px;
  font-family: Arial Black;
  dominant-baseline: central;
  text-anchor: middle;
}</style></svg>